M48
; DRILL file {KiCad (7.0.0)} date Sun Feb 19 13:16:29 2023
; FORMAT={-:-/ absolute / inch / decimal}
; #@! TF.CreationDate,2023-02-19T13:16:29+01:00
; #@! TF.GenerationSoftware,Kicad,Pcbnew,(7.0.0)
; #@! TF.FileFunction,Plated,1,2,PTH
FMAT,2
INCH
; #@! TA.AperFunction,Plated,PTH,ViaDrill
T1C0.0236
; #@! TA.AperFunction,Plated,PTH,ComponentDrill
T2C0.0394
; #@! TA.AperFunction,Plated,PTH,ComponentDrill
T3C0.1260
%
G90
G05
T1
X3.7106Y-5.878
X3.8287Y-5.7874
X4.0315Y-5.4843
X4.0787Y-5.4488
X4.1496Y-5.9803
X4.1831Y-5.876
X4.1969Y-6.0236
X4.439Y-6.2205
X4.5039Y-5.3228
X4.5512Y-6.0023
X4.5905Y-5.3228
X4.6614Y-5.437
X4.752Y-5.2362
T2
X3.5039Y-5.4921
X3.5039Y-5.5906
X4.4094Y-4.8031
X4.5079Y-4.8031
X5.3543Y-5.4921
X5.3543Y-5.5906
T3
X3.4646Y-4.8031
X3.4646Y-6.378
X5.4331Y-4.8031
X5.4331Y-6.378
T0
M30
